<svg width="137" height="100" viewBox="0 0 137 100" fill="none" xmlns="http://www.w3.org/2000/svg">
<path fill-rule="evenodd" clip-rule="evenodd" d="M93.2465 77C84.8859 88.5135 71.3172 96 56 96C30.5949 96 10 75.4051 10 50C10 24.5949 30.5949 4 56 4C70.8692 4 84.0906 11.0549 92.4995 22H93.7528C85.1878 10.4705 71.4663 3 56 3C30.0426 3 9 24.0426 9 50C9 75.9574 30.0426 97 56 97C71.909 97 85.9719 89.0957 94.4756 77H93.2465Z" fill="#755BB4"/>
<path d="M37.24 22.424V49.016H50.416V53H32.68V22.424H37.24ZM58.2888 24.992C57.3768 24.992 56.6568 24.744 56.1288 24.248C55.6168 23.736 55.3608 23.048 55.3608 22.184C55.3608 21.352 55.6168 20.696 56.1288 20.216C56.6568 19.72 57.3768 19.472 58.2888 19.472C59.1848 19.472 59.8888 19.72 60.4008 20.216C60.9288 20.696 61.1928 21.352 61.1928 22.184C61.1928 23.048 60.9288 23.736 60.4008 24.248C59.8888 24.744 59.1848 24.992 58.2888 24.992ZM56.0088 53V29.84H60.5688V53H56.0088ZM102.547 53V39.464C102.547 37.464 102.067 35.952 101.107 34.928C100.163 33.888 98.891 33.368 97.291 33.368C95.371 33.368 93.883 34.12 92.827 35.624C91.787 37.128 91.267 39.288 91.267 42.104H89.275C89.275 39.88 89.491 37.96 89.923 36.344C90.355 34.728 90.971 33.4 91.771 32.36C92.587 31.32 93.555 30.552 94.675 30.056C95.811 29.544 97.075 29.288 98.467 29.288C100.323 29.288 101.891 29.704 103.171 30.536C104.467 31.368 105.451 32.552 106.123 34.088C106.795 35.608 107.131 37.4 107.131 39.464V53H102.547ZM70.555 53V29.912H74.515L75.019 34.256C75.755 32.64 76.763 31.408 78.043 30.56C79.339 29.712 80.859 29.288 82.603 29.288C84.459 29.288 86.027 29.704 87.307 30.536C88.603 31.368 89.587 32.552 90.259 34.088C90.931 35.608 91.267 37.4 91.267 39.464V53H86.731V39.464C86.731 37.464 86.251 35.952 85.291 34.928C84.347 33.888 83.067 33.368 81.451 33.368C80.171 33.368 79.051 33.72 78.091 34.424C77.147 35.112 76.411 36.128 75.883 37.472C75.371 38.8 75.115 40.424 75.115 42.344V53H70.555ZM130.215 53L129.639 47.696V38.072C129.639 36.184 129.247 34.816 128.463 33.968C127.679 33.104 126.439 32.672 124.743 32.672C123.783 32.672 122.927 32.816 122.175 33.104C121.439 33.376 120.855 33.792 120.423 34.352C120.007 34.912 119.799 35.616 119.799 36.464H114.759C114.759 34.768 115.175 33.392 116.007 32.336C116.839 31.28 117.999 30.512 119.487 30.032C120.991 29.536 122.743 29.288 124.743 29.288C126.615 29.288 128.263 29.6 129.687 30.224C131.111 30.832 132.215 31.792 132.999 33.104C133.799 34.416 134.199 36.112 134.199 38.192V53H130.215ZM122.487 53.624C120.551 53.624 118.943 53.288 117.663 52.616C116.383 51.928 115.423 51.032 114.783 49.928C114.159 48.824 113.847 47.648 113.847 46.4C113.847 44.88 114.231 43.632 114.999 42.656C115.783 41.664 116.863 40.928 118.239 40.448C119.615 39.968 121.199 39.728 122.991 39.728C124.223 39.728 125.423 39.84 126.591 40.064C127.759 40.288 128.911 40.584 130.047 40.952V43.712C129.119 43.376 128.087 43.112 126.951 42.92C125.831 42.712 124.783 42.608 123.807 42.608C122.351 42.608 121.135 42.896 120.159 43.472C119.183 44.048 118.695 45.024 118.695 46.4C118.695 47.408 119.079 48.28 119.847 49.016C120.615 49.736 121.831 50.096 123.495 50.096C124.711 50.096 125.783 49.824 126.711 49.28C127.639 48.72 128.359 48.024 128.871 47.192C129.383 46.36 129.639 45.528 129.639 44.696H130.743C130.743 46.296 130.415 47.776 129.759 49.136C129.119 50.48 128.183 51.568 126.951 52.4C125.719 53.216 124.231 53.624 122.487 53.624Z" fill="black"/>
<path d="M32.8875 71V60.875H35.175C35.8083 60.875 36.3042 60.9792 36.6625 61.1875C37.0292 61.3875 37.2917 61.6833 37.45 62.075C37.6083 62.4583 37.6875 62.9167 37.6875 63.45C37.6875 63.825 37.6458 64.1792 37.5625 64.5125C37.4792 64.8458 37.3375 65.1292 37.1375 65.3625C36.9375 65.5958 36.6542 65.75 36.2875 65.825L37.8375 71H36.9125L35.425 66.025H33.8375V71H32.8875ZM33.8375 65.325H35.125C35.55 65.325 35.8792 65.2542 36.1125 65.1125C36.3458 64.9708 36.5125 64.7625 36.6125 64.4875C36.7125 64.2125 36.7625 63.8667 36.7625 63.45C36.7625 62.825 36.6542 62.3583 36.4375 62.05C36.2208 61.7417 35.7917 61.5875 35.15 61.5875H33.8375V65.325ZM40.8968 71.1125C40.4468 71.1125 40.0759 71.025 39.7843 70.85C39.5009 70.6667 39.2884 70.3667 39.1468 69.95C39.0134 69.5333 38.9468 68.9792 38.9468 68.2875V66.4625C38.9468 65.7458 39.0176 65.1875 39.1593 64.7875C39.3009 64.3792 39.5176 64.0917 39.8093 63.925C40.1009 63.75 40.4676 63.6625 40.9093 63.6625C41.4176 63.6625 41.8051 63.7708 42.0718 63.9875C42.3384 64.2042 42.5218 64.5333 42.6218 64.975C42.7301 65.4083 42.7843 65.9667 42.7843 66.65V67.3H39.8593V68.5625C39.8593 69.0292 39.8926 69.4 39.9593 69.675C40.0343 69.9417 40.1468 70.1333 40.2968 70.25C40.4551 70.3667 40.6551 70.425 40.8968 70.425C41.0801 70.425 41.2468 70.3917 41.3968 70.325C41.5468 70.25 41.6634 70.1125 41.7468 69.9125C41.8384 69.7042 41.8843 69.4125 41.8843 69.0375V68.5375H42.7718V68.9375C42.7718 69.5958 42.6343 70.125 42.3593 70.525C42.0926 70.9167 41.6051 71.1125 40.8968 71.1125ZM39.8593 66.775H41.8843V66.175C41.8843 65.7917 41.8634 65.4667 41.8218 65.2C41.7801 64.925 41.6884 64.7167 41.5468 64.575C41.4134 64.425 41.1968 64.35 40.8968 64.35C40.6468 64.35 40.4426 64.4042 40.2843 64.5125C40.1343 64.6208 40.0259 64.8167 39.9593 65.1C39.8926 65.375 39.8593 65.7708 39.8593 66.2875V66.775ZM44.4659 71V64.4375H43.5409V63.775H44.4659V63.025C44.4659 62.6667 44.4951 62.35 44.5534 62.075C44.6118 61.8 44.7326 61.5833 44.9159 61.425C45.1076 61.2667 45.3993 61.1875 45.7909 61.1875C45.9243 61.1875 46.0493 61.1958 46.1659 61.2125C46.2909 61.2208 46.4118 61.2417 46.5284 61.275V61.95C46.4534 61.9333 46.3659 61.9208 46.2659 61.9125C46.1743 61.8958 46.0909 61.8875 46.0159 61.8875C45.7409 61.8875 45.5659 61.975 45.4909 62.15C45.4243 62.3167 45.3909 62.5792 45.3909 62.9375V63.775H46.5534V64.4375H45.3909V71H44.4659ZM49.1481 71.1125C48.6565 71.1125 48.269 71.0083 47.9856 70.8C47.7106 70.5833 47.5148 70.275 47.3981 69.875C47.2815 69.4667 47.2231 68.9708 47.2231 68.3875V66.3875C47.2231 65.8042 47.2815 65.3125 47.3981 64.9125C47.5148 64.5042 47.7106 64.1958 47.9856 63.9875C48.269 63.7708 48.6565 63.6625 49.1481 63.6625C49.6565 63.6625 50.0481 63.7708 50.3231 63.9875C50.5981 64.1958 50.794 64.5042 50.9106 64.9125C51.0273 65.3125 51.0856 65.8042 51.0856 66.3875V68.3875C51.0856 68.9708 51.0273 69.4667 50.9106 69.875C50.794 70.275 50.5981 70.5833 50.3231 70.8C50.0481 71.0083 49.6565 71.1125 49.1481 71.1125ZM49.1481 70.425C49.4648 70.425 49.694 70.3417 49.8356 70.175C49.9856 70.0083 50.0773 69.775 50.1106 69.475C50.144 69.1667 50.1606 68.8208 50.1606 68.4375V66.3375C50.1606 65.9458 50.144 65.6042 50.1106 65.3125C50.0773 65.0125 49.9856 64.7792 49.8356 64.6125C49.694 64.4375 49.4648 64.35 49.1481 64.35C48.8315 64.35 48.6023 64.4375 48.4606 64.6125C48.319 64.7792 48.2315 65.0125 48.1981 65.3125C48.1648 65.6042 48.1481 65.9458 48.1481 66.3375V68.4375C48.1481 68.8208 48.1648 69.1667 48.1981 69.475C48.2315 69.775 48.319 70.0083 48.4606 70.175C48.6023 70.3417 48.8315 70.425 49.1481 70.425ZM52.4158 71V63.775H53.3408V64.7625C53.5742 64.3792 53.8408 64.1083 54.1408 63.95C54.4408 63.7833 54.7283 63.7 55.0033 63.7C55.0283 63.7 55.0533 63.7 55.0783 63.7C55.1033 63.7 55.1325 63.7042 55.1658 63.7125V64.6875C55.1075 64.6625 55.0367 64.6458 54.9533 64.6375C54.87 64.6208 54.7908 64.6125 54.7158 64.6125C54.4325 64.6125 54.1742 64.6792 53.9408 64.8125C53.7158 64.9458 53.5158 65.1583 53.3408 65.45V71H52.4158ZM56.0643 71V63.775H56.9143V64.5125C57.1559 64.2292 57.4226 64.0167 57.7143 63.875C58.0059 63.725 58.3059 63.65 58.6143 63.65C58.8643 63.65 59.0934 63.7167 59.3018 63.85C59.5184 63.9833 59.6726 64.2292 59.7643 64.5875C60.0143 64.2792 60.2893 64.0458 60.5893 63.8875C60.8893 63.7292 61.2059 63.65 61.5393 63.65C61.7476 63.65 61.9434 63.7 62.1268 63.8C62.3184 63.9 62.4726 64.0708 62.5893 64.3125C62.7059 64.5542 62.7643 64.8833 62.7643 65.3V71H61.9143V65.325C61.9143 64.9 61.8434 64.6208 61.7018 64.4875C61.5684 64.3458 61.3976 64.275 61.1893 64.275C60.9559 64.275 60.7226 64.3417 60.4893 64.475C60.2559 64.6083 60.0351 64.7917 59.8268 65.025C59.8351 65.0667 59.8393 65.1125 59.8393 65.1625C59.8476 65.2042 59.8518 65.25 59.8518 65.3V71H58.9893V65.325C58.9893 64.9 58.9184 64.6208 58.7768 64.4875C58.6434 64.3458 58.4726 64.275 58.2643 64.275C58.0393 64.275 57.8101 64.3417 57.5768 64.475C57.3434 64.6083 57.1226 64.7875 56.9143 65.0125V71H56.0643ZM65.3587 71.1125C65.067 71.1125 64.8129 71.0417 64.5962 70.9C64.3795 70.75 64.2087 70.5542 64.0837 70.3125C63.967 70.0625 63.9087 69.7917 63.9087 69.5C63.9087 69.1333 63.9587 68.8208 64.0587 68.5625C64.167 68.3042 64.3337 68.075 64.5587 67.875C64.792 67.6667 65.092 67.4667 65.4587 67.275C65.8337 67.075 66.2879 66.8542 66.8212 66.6125V66.1C66.8212 65.6583 66.792 65.3125 66.7337 65.0625C66.6837 64.8042 66.592 64.6208 66.4587 64.5125C66.3337 64.4042 66.1545 64.35 65.9212 64.35C65.7295 64.35 65.5587 64.3875 65.4087 64.4625C65.2587 64.5375 65.1379 64.6667 65.0462 64.85C64.9545 65.025 64.9087 65.2708 64.9087 65.5875V65.8375L64.0087 65.825C64.017 65.0917 64.1712 64.55 64.4712 64.2C64.7795 63.8417 65.2795 63.6625 65.9712 63.6625C66.6212 63.6625 67.0754 63.8583 67.3337 64.25C67.6004 64.6333 67.7337 65.2333 67.7337 66.05V69.5625C67.7337 69.6875 67.7379 69.85 67.7462 70.05C67.7545 70.2417 67.7629 70.425 67.7712 70.6C67.7795 70.775 67.7879 70.9083 67.7962 71H66.9837C66.967 70.8417 66.942 70.6667 66.9087 70.475C66.8754 70.275 66.8545 70.1167 66.8462 70C66.7462 70.2917 66.567 70.55 66.3087 70.775C66.0587 71 65.742 71.1125 65.3587 71.1125ZM65.6462 70.3375C65.8295 70.3375 65.9962 70.2917 66.1462 70.2C66.2962 70.1083 66.4295 70 66.5462 69.875C66.6629 69.7417 66.7545 69.6083 66.8212 69.475V67.225C66.4629 67.4083 66.1545 67.575 65.8962 67.725C65.6462 67.875 65.442 68.0208 65.2837 68.1625C65.1254 68.3042 65.0087 68.4667 64.9337 68.65C64.8587 68.825 64.8212 69.0333 64.8212 69.275C64.8212 69.6583 64.9045 69.9333 65.0712 70.1C65.2379 70.2583 65.4295 70.3375 65.6462 70.3375ZM70.727 71.1125C70.152 71.1125 69.6936 70.9292 69.352 70.5625C69.0103 70.1875 68.8145 69.6875 68.7645 69.0625L69.527 68.825C69.577 69.3833 69.7061 69.7917 69.9145 70.05C70.1228 70.3 70.4145 70.425 70.7895 70.425C71.1061 70.425 71.3478 70.3375 71.5145 70.1625C71.6895 69.9792 71.777 69.725 71.777 69.4C71.777 69.1667 71.7061 68.9333 71.5645 68.7C71.4228 68.4583 71.202 68.2083 70.902 67.95L69.9145 67.1C69.5895 66.825 69.3436 66.55 69.177 66.275C69.0103 66 68.927 65.6708 68.927 65.2875C68.927 64.9375 68.9978 64.6458 69.1395 64.4125C69.2895 64.1708 69.4936 63.9875 69.752 63.8625C70.0103 63.7292 70.3103 63.6625 70.652 63.6625C71.202 63.6625 71.6186 63.8417 71.902 64.2C72.1853 64.55 72.3395 65.0042 72.3645 65.5625L71.7145 65.775C71.6978 65.45 71.6478 65.1833 71.5645 64.975C71.4811 64.7583 71.3645 64.6 71.2145 64.5C71.0728 64.4 70.8978 64.35 70.6895 64.35C70.4145 64.35 70.1895 64.4292 70.0145 64.5875C69.8478 64.7375 69.7645 64.95 69.7645 65.225C69.7645 65.4417 69.8061 65.6333 69.8895 65.8C69.9728 65.9667 70.127 66.1542 70.352 66.3625L71.377 67.275C71.577 67.45 71.7686 67.6375 71.952 67.8375C72.1353 68.0375 72.2853 68.2625 72.402 68.5125C72.5186 68.7542 72.577 69.0417 72.577 69.375C72.577 69.75 72.4978 70.0667 72.3395 70.325C72.1895 70.575 71.977 70.7708 71.702 70.9125C71.427 71.0458 71.102 71.1125 70.727 71.1125ZM77.9817 71.1125C77.5317 71.1125 77.1609 71.025 76.8692 70.85C76.5859 70.6667 76.3734 70.3667 76.2317 69.95C76.0984 69.5333 76.0317 68.9792 76.0317 68.2875V66.4625C76.0317 65.7458 76.1026 65.1875 76.2442 64.7875C76.3859 64.3792 76.6026 64.0917 76.8942 63.925C77.1859 63.75 77.5526 63.6625 77.9942 63.6625C78.5026 63.6625 78.8901 63.7708 79.1567 63.9875C79.4234 64.2042 79.6067 64.5333 79.7067 64.975C79.8151 65.4083 79.8692 65.9667 79.8692 66.65V67.3H76.9442V68.5625C76.9442 69.0292 76.9776 69.4 77.0442 69.675C77.1192 69.9417 77.2317 70.1333 77.3817 70.25C77.5401 70.3667 77.7401 70.425 77.9817 70.425C78.1651 70.425 78.3317 70.3917 78.4817 70.325C78.6317 70.25 78.7484 70.1125 78.8317 69.9125C78.9234 69.7042 78.9692 69.4125 78.9692 69.0375V68.5375H79.8567V68.9375C79.8567 69.5958 79.7192 70.125 79.4442 70.525C79.1776 70.9167 78.6901 71.1125 77.9817 71.1125ZM76.9442 66.775H78.9692V66.175C78.9692 65.7917 78.9484 65.4667 78.9067 65.2C78.8651 64.925 78.7734 64.7167 78.6317 64.575C78.4984 64.425 78.2817 64.35 77.9817 64.35C77.7317 64.35 77.5276 64.4042 77.3692 64.5125C77.2192 64.6208 77.1109 64.8167 77.0442 65.1C76.9776 65.375 76.9442 65.7708 76.9442 66.2875V66.775ZM86.1896 71.125C85.5063 71.125 84.9771 70.9833 84.6021 70.7C84.2355 70.4167 83.9813 70.0375 83.8396 69.5625C83.698 69.0792 83.6271 68.5458 83.6271 67.9625V63.9375C83.6271 63.3125 83.698 62.7625 83.8396 62.2875C83.9896 61.8125 84.2521 61.4417 84.6271 61.175C85.0021 60.9083 85.523 60.775 86.1896 60.775C86.798 60.775 87.273 60.8917 87.6146 61.125C87.9646 61.3583 88.2146 61.6917 88.3646 62.125C88.5146 62.55 88.5896 63.0583 88.5896 63.65V64.2625H87.6896V63.675C87.6896 63.2333 87.6521 62.8542 87.5771 62.5375C87.5105 62.2208 87.3688 61.975 87.1521 61.8C86.9355 61.625 86.6188 61.5375 86.2021 61.5375C85.7438 61.5375 85.398 61.6333 85.1646 61.825C84.9396 62.0083 84.7855 62.2708 84.7021 62.6125C84.6271 62.9542 84.5896 63.35 84.5896 63.8V68.1125C84.5896 68.6125 84.6355 69.0292 84.7271 69.3625C84.8271 69.6958 84.9938 69.9458 85.2271 70.1125C85.4605 70.2792 85.7855 70.3625 86.2021 70.3625C86.6271 70.3625 86.9438 70.2708 87.1521 70.0875C87.3688 69.9042 87.5105 69.65 87.5771 69.325C87.6521 68.9917 87.6896 68.6042 87.6896 68.1625V67.5H88.5896V68.1C88.5896 68.6917 88.5188 69.2167 88.3771 69.675C88.2438 70.125 88.0021 70.4792 87.6521 70.7375C87.3105 70.9958 86.823 71.125 86.1896 71.125ZM91.6774 71.1125C91.1858 71.1125 90.7983 71.0083 90.5149 70.8C90.2399 70.5833 90.0441 70.275 89.9274 69.875C89.8108 69.4667 89.7524 68.9708 89.7524 68.3875V66.3875C89.7524 65.8042 89.8108 65.3125 89.9274 64.9125C90.0441 64.5042 90.2399 64.1958 90.5149 63.9875C90.7983 63.7708 91.1858 63.6625 91.6774 63.6625C92.1858 63.6625 92.5774 63.7708 92.8524 63.9875C93.1274 64.1958 93.3233 64.5042 93.4399 64.9125C93.5566 65.3125 93.6149 65.8042 93.6149 66.3875V68.3875C93.6149 68.9708 93.5566 69.4667 93.4399 69.875C93.3233 70.275 93.1274 70.5833 92.8524 70.8C92.5774 71.0083 92.1858 71.1125 91.6774 71.1125ZM91.6774 70.425C91.9941 70.425 92.2233 70.3417 92.3649 70.175C92.5149 70.0083 92.6066 69.775 92.6399 69.475C92.6733 69.1667 92.6899 68.8208 92.6899 68.4375V66.3375C92.6899 65.9458 92.6733 65.6042 92.6399 65.3125C92.6066 65.0125 92.5149 64.7792 92.3649 64.6125C92.2233 64.4375 91.9941 64.35 91.6774 64.35C91.3608 64.35 91.1316 64.4375 90.9899 64.6125C90.8483 64.7792 90.7608 65.0125 90.7274 65.3125C90.6941 65.6042 90.6774 65.9458 90.6774 66.3375V68.4375C90.6774 68.8208 90.6941 69.1667 90.7274 69.475C90.7608 69.775 90.8483 70.0083 90.9899 70.175C91.1316 70.3417 91.3608 70.425 91.6774 70.425ZM94.8826 71V63.775H95.7951V64.525C96.0285 64.275 96.291 64.0708 96.5826 63.9125C96.8743 63.7458 97.191 63.6625 97.5326 63.6625C97.7743 63.6625 97.9785 63.725 98.1451 63.85C98.3118 63.9667 98.4368 64.1417 98.5201 64.375C98.6035 64.6 98.6451 64.875 98.6451 65.2V71H97.7326V65.4C97.7326 65.025 97.6743 64.7625 97.5576 64.6125C97.4493 64.4542 97.2785 64.375 97.0451 64.375C96.8368 64.375 96.6243 64.4375 96.4076 64.5625C96.191 64.6875 95.9868 64.85 95.7951 65.05V71H94.8826ZM101.647 71.1125C101.072 71.1125 100.614 70.9292 100.272 70.5625C99.9307 70.1875 99.7349 69.6875 99.6849 69.0625L100.447 68.825C100.497 69.3833 100.627 69.7917 100.835 70.05C101.043 70.3 101.335 70.425 101.71 70.425C102.027 70.425 102.268 70.3375 102.435 70.1625C102.61 69.9792 102.697 69.725 102.697 69.4C102.697 69.1667 102.627 68.9333 102.485 68.7C102.343 68.4583 102.122 68.2083 101.822 67.95L100.835 67.1C100.51 66.825 100.264 66.55 100.097 66.275C99.9307 66 99.8474 65.6708 99.8474 65.2875C99.8474 64.9375 99.9182 64.6458 100.06 64.4125C100.21 64.1708 100.414 63.9875 100.672 63.8625C100.931 63.7292 101.231 63.6625 101.572 63.6625C102.122 63.6625 102.539 63.8417 102.822 64.2C103.106 64.55 103.26 65.0042 103.285 65.5625L102.635 65.775C102.618 65.45 102.568 65.1833 102.485 64.975C102.402 64.7583 102.285 64.6 102.135 64.5C101.993 64.4 101.818 64.35 101.61 64.35C101.335 64.35 101.11 64.4292 100.935 64.5875C100.768 64.7375 100.685 64.95 100.685 65.225C100.685 65.4417 100.727 65.6333 100.81 65.8C100.893 65.9667 101.047 66.1542 101.272 66.3625L102.297 67.275C102.497 67.45 102.689 67.6375 102.872 67.8375C103.056 68.0375 103.206 68.2625 103.322 68.5125C103.439 68.7542 103.497 69.0417 103.497 69.375C103.497 69.75 103.418 70.0667 103.26 70.325C103.11 70.575 102.897 70.7708 102.622 70.9125C102.347 71.0458 102.022 71.1125 101.647 71.1125ZM106.251 71.0875C105.901 71.0875 105.63 71.0208 105.438 70.8875C105.255 70.7458 105.126 70.5583 105.051 70.325C104.984 70.0833 104.951 69.8083 104.951 69.5V64.375H104.063V63.775H104.951V61.5375H105.863V63.775H107.063V64.375H105.863V69.4125C105.863 69.7625 105.901 70.0125 105.976 70.1625C106.059 70.3042 106.234 70.375 106.501 70.375C106.576 70.375 106.659 70.3708 106.751 70.3625C106.851 70.3458 106.943 70.3292 107.026 70.3125V71.0125C106.901 71.0375 106.772 71.0542 106.638 71.0625C106.505 71.0792 106.376 71.0875 106.251 71.0875ZM108.104 71V63.775H109.029V64.7625C109.263 64.3792 109.529 64.1083 109.829 63.95C110.129 63.7833 110.417 63.7 110.692 63.7C110.717 63.7 110.742 63.7 110.767 63.7C110.792 63.7 110.821 63.7042 110.854 63.7125V64.6875C110.796 64.6625 110.725 64.6458 110.642 64.6375C110.558 64.6208 110.479 64.6125 110.404 64.6125C110.121 64.6125 109.863 64.6792 109.629 64.8125C109.404 64.9458 109.204 65.1583 109.029 65.45V71H108.104ZM112.815 71.1125C112.574 71.1125 112.369 71.05 112.203 70.925C112.036 70.8 111.907 70.625 111.815 70.4C111.732 70.175 111.69 69.9 111.69 69.575V63.775H112.615V69.375C112.615 69.75 112.669 70.0125 112.778 70.1625C112.894 70.3125 113.069 70.3875 113.303 70.3875C113.519 70.3875 113.736 70.3208 113.953 70.1875C114.178 70.0542 114.386 69.8833 114.578 69.675V63.775H115.49V71H114.578V70.2C114.344 70.4667 114.078 70.6875 113.778 70.8625C113.478 71.0292 113.157 71.1125 112.815 71.1125ZM118.704 71.1125C118.137 71.1125 117.717 70.9875 117.442 70.7375C117.167 70.4875 116.983 70.15 116.892 69.725C116.808 69.2917 116.767 68.8042 116.767 68.2625V66.575C116.767 65.9083 116.821 65.3625 116.929 64.9375C117.037 64.5042 117.229 64.1833 117.504 63.975C117.787 63.7667 118.187 63.6625 118.704 63.6625C119.212 63.6625 119.6 63.7583 119.867 63.95C120.133 64.1417 120.312 64.4125 120.404 64.7625C120.496 65.1125 120.542 65.5167 120.542 65.975V66.325H119.692V65.975C119.692 65.55 119.658 65.2208 119.592 64.9875C119.533 64.7542 119.429 64.5917 119.279 64.5C119.137 64.4 118.946 64.35 118.704 64.35C118.421 64.35 118.204 64.4167 118.054 64.55C117.904 64.6833 117.804 64.9042 117.754 65.2125C117.704 65.5125 117.679 65.9167 117.679 66.425V68.45C117.679 69.175 117.75 69.6875 117.892 69.9875C118.033 70.2792 118.308 70.425 118.717 70.425C119 70.425 119.212 70.3625 119.354 70.2375C119.496 70.1042 119.587 69.9083 119.629 69.65C119.671 69.3917 119.692 69.0708 119.692 68.6875V68.2875H120.542V68.6375C120.542 69.1208 120.496 69.55 120.404 69.925C120.321 70.2917 120.146 70.5833 119.879 70.8C119.612 71.0083 119.221 71.1125 118.704 71.1125ZM118.642 73.55C118.558 73.55 118.471 73.5417 118.379 73.525C118.287 73.5167 118.196 73.5042 118.104 73.4875V73.0125C118.171 73.0292 118.237 73.0417 118.304 73.05C118.379 73.0583 118.45 73.0625 118.517 73.0625C118.775 73.0625 118.975 73.0208 119.117 72.9375C119.258 72.8625 119.329 72.7333 119.329 72.55C119.329 72.4167 119.292 72.3083 119.217 72.225C119.15 72.1417 119.046 72.0708 118.904 72.0125C118.771 71.9625 118.604 71.925 118.404 71.9V71H118.879V71.625C119.262 71.6417 119.55 71.7333 119.742 71.9C119.933 72.0667 120.029 72.2875 120.029 72.5625C120.029 72.7792 119.971 72.9625 119.854 73.1125C119.746 73.2625 119.587 73.3708 119.379 73.4375C119.171 73.5125 118.925 73.55 118.642 73.55ZM123.55 71.1125C123.058 71.1125 122.671 71.0083 122.388 70.8C122.113 70.5833 121.917 70.275 121.8 69.875C121.683 69.4667 121.625 68.9708 121.625 68.3875V66.3875C121.625 65.8042 121.683 65.3125 121.8 64.9125C121.917 64.5042 122.113 64.1958 122.388 63.9875C122.671 63.7708 123.058 63.6625 123.55 63.6625C124.058 63.6625 124.45 63.7708 124.725 63.9875C125 64.1958 125.196 64.5042 125.313 64.9125C125.429 65.3125 125.488 65.8042 125.488 66.3875V68.3875C125.488 68.9708 125.429 69.4667 125.313 69.875C125.196 70.275 125 70.5833 124.725 70.8C124.45 71.0083 124.058 71.1125 123.55 71.1125ZM123.55 70.425C123.867 70.425 124.096 70.3417 124.238 70.175C124.388 70.0083 124.479 69.775 124.513 69.475C124.546 69.1667 124.563 68.8208 124.563 68.4375V66.3375C124.563 65.9458 124.546 65.6042 124.513 65.3125C124.479 65.0125 124.388 64.7792 124.238 64.6125C124.096 64.4375 123.867 64.35 123.55 64.35C123.233 64.35 123.004 64.4375 122.863 64.6125C122.721 64.7792 122.633 65.0125 122.6 65.3125C122.567 65.6042 122.55 65.9458 122.55 66.3375V68.4375C122.55 68.8208 122.567 69.1667 122.6 69.475C122.633 69.775 122.721 70.0083 122.863 70.175C123.004 70.3417 123.233 70.425 123.55 70.425ZM124.325 62.35C124.125 62.35 123.946 62.3 123.788 62.2C123.629 62.1 123.479 62 123.338 61.9C123.204 61.8 123.063 61.75 122.913 61.75C122.779 61.75 122.675 61.7917 122.6 61.875C122.533 61.9583 122.5 62.0833 122.5 62.25H121.938C121.938 62.1083 121.958 61.9542 122 61.7875C122.05 61.6125 122.138 61.4625 122.263 61.3375C122.388 61.2125 122.567 61.15 122.8 61.15C123 61.15 123.179 61.2 123.338 61.3C123.496 61.3917 123.646 61.4875 123.788 61.5875C123.929 61.6875 124.075 61.7375 124.225 61.7375C124.367 61.7375 124.471 61.7 124.538 61.625C124.604 61.5417 124.638 61.4 124.638 61.2H125.188C125.188 61.35 125.167 61.5167 125.125 61.7C125.092 61.875 125.013 62.0292 124.888 62.1625C124.763 62.2875 124.575 62.35 124.325 62.35ZM128.568 71.1125C128.118 71.1125 127.747 71.025 127.455 70.85C127.172 70.6667 126.959 70.3667 126.818 69.95C126.684 69.5333 126.618 68.9792 126.618 68.2875V66.4625C126.618 65.7458 126.689 65.1875 126.83 64.7875C126.972 64.3792 127.189 64.0917 127.48 63.925C127.772 63.75 128.139 63.6625 128.58 63.6625C129.089 63.6625 129.476 63.7708 129.743 63.9875C130.009 64.2042 130.193 64.5333 130.293 64.975C130.401 65.4083 130.455 65.9667 130.455 66.65V67.3H127.53V68.5625C127.53 69.0292 127.564 69.4 127.63 69.675C127.705 69.9417 127.818 70.1333 127.968 70.25C128.126 70.3667 128.326 70.425 128.568 70.425C128.751 70.425 128.918 70.3917 129.068 70.325C129.218 70.25 129.334 70.1125 129.418 69.9125C129.509 69.7042 129.555 69.4125 129.555 69.0375V68.5375H130.443V68.9375C130.443 69.5958 130.305 70.125 130.03 70.525C129.764 70.9167 129.276 71.1125 128.568 71.1125ZM127.53 66.775H129.555V66.175C129.555 65.7917 129.534 65.4667 129.493 65.2C129.451 64.925 129.359 64.7167 129.218 64.575C129.084 64.425 128.868 64.35 128.568 64.35C128.318 64.35 128.114 64.4042 127.955 64.5125C127.805 64.6208 127.697 64.8167 127.63 65.1C127.564 65.375 127.53 65.7708 127.53 66.2875V66.775ZM133.337 71.1125C132.762 71.1125 132.303 70.9292 131.962 70.5625C131.62 70.1875 131.424 69.6875 131.374 69.0625L132.137 68.825C132.187 69.3833 132.316 69.7917 132.524 70.05C132.733 70.3 133.024 70.425 133.399 70.425C133.716 70.425 133.958 70.3375 134.124 70.1625C134.299 69.9792 134.387 69.725 134.387 69.4C134.387 69.1667 134.316 68.9333 134.174 68.7C134.033 68.4583 133.812 68.2083 133.512 67.95L132.524 67.1C132.199 66.825 131.953 66.55 131.787 66.275C131.62 66 131.537 65.6708 131.537 65.2875C131.537 64.9375 131.608 64.6458 131.749 64.4125C131.899 64.1708 132.103 63.9875 132.362 63.8625C132.62 63.7292 132.92 63.6625 133.262 63.6625C133.812 63.6625 134.228 63.8417 134.512 64.2C134.795 64.55 134.949 65.0042 134.974 65.5625L134.324 65.775C134.308 65.45 134.258 65.1833 134.174 64.975C134.091 64.7583 133.974 64.6 133.824 64.5C133.683 64.4 133.508 64.35 133.299 64.35C133.024 64.35 132.799 64.4292 132.624 64.5875C132.458 64.7375 132.374 64.95 132.374 65.225C132.374 65.4417 132.416 65.6333 132.499 65.8C132.583 65.9667 132.737 66.1542 132.962 66.3625L133.987 67.275C134.187 67.45 134.378 67.6375 134.562 67.8375C134.745 68.0375 134.895 68.2625 135.012 68.5125C135.128 68.7542 135.187 69.0417 135.187 69.375C135.187 69.75 135.108 70.0667 134.949 70.325C134.799 70.575 134.587 70.7708 134.312 70.9125C134.037 71.0458 133.712 71.1125 133.337 71.1125Z" fill="black"/>
</svg>
