<svg width="138" height="100" viewBox="0 0 138 100" fill="none" xmlns="http://www.w3.org/2000/svg">
<path fill-rule="evenodd" clip-rule="evenodd" d="M93.2465 77C84.8859 88.5135 71.3172 96 56 96C30.5949 96 10 75.4051 10 50C10 24.5949 30.5949 4 56 4C70.8692 4 84.0906 11.0549 92.4995 22H93.7528C85.1878 10.4705 71.4663 3 56 3C30.0426 3 9 24.0426 9 50C9 75.9574 30.0426 97 56 97C71.909 97 85.9719 89.0957 94.4756 77H93.2465Z" fill="#755BB4"/>
<path d="M40.24 32.424V59.016H53.416V63H35.68V32.424H40.24ZM61.2888 34.992C60.3768 34.992 59.6568 34.744 59.1288 34.248C58.6168 33.736 58.3608 33.048 58.3608 32.184C58.3608 31.352 58.6168 30.696 59.1288 30.216C59.6568 29.72 60.3768 29.472 61.2888 29.472C62.1848 29.472 62.8888 29.72 63.4008 30.216C63.9288 30.696 64.1928 31.352 64.1928 32.184C64.1928 33.048 63.9288 33.736 63.4008 34.248C62.8888 34.744 62.1848 34.992 61.2888 34.992ZM59.0088 63V39.84H63.5688V63H59.0088ZM105.547 63V49.464C105.547 47.464 105.067 45.952 104.107 44.928C103.163 43.888 101.891 43.368 100.291 43.368C98.371 43.368 96.883 44.12 95.827 45.624C94.787 47.128 94.267 49.288 94.267 52.104H92.275C92.275 49.88 92.491 47.96 92.923 46.344C93.355 44.728 93.971 43.4 94.771 42.36C95.587 41.32 96.555 40.552 97.675 40.056C98.811 39.544 100.075 39.288 101.467 39.288C103.323 39.288 104.891 39.704 106.171 40.536C107.467 41.368 108.451 42.552 109.123 44.088C109.795 45.608 110.131 47.4 110.131 49.464V63H105.547ZM73.555 63V39.912H77.515L78.019 44.256C78.755 42.64 79.763 41.408 81.043 40.56C82.339 39.712 83.859 39.288 85.603 39.288C87.459 39.288 89.027 39.704 90.307 40.536C91.603 41.368 92.587 42.552 93.259 44.088C93.931 45.608 94.267 47.4 94.267 49.464V63H89.731V49.464C89.731 47.464 89.251 45.952 88.291 44.928C87.347 43.888 86.067 43.368 84.451 43.368C83.171 43.368 82.051 43.72 81.091 44.424C80.147 45.112 79.411 46.128 78.883 47.472C78.371 48.8 78.115 50.424 78.115 52.344V63H73.555ZM133.215 63L132.639 57.696V48.072C132.639 46.184 132.247 44.816 131.463 43.968C130.679 43.104 129.439 42.672 127.743 42.672C126.783 42.672 125.927 42.816 125.175 43.104C124.439 43.376 123.855 43.792 123.423 44.352C123.007 44.912 122.799 45.616 122.799 46.464H117.759C117.759 44.768 118.175 43.392 119.007 42.336C119.839 41.28 120.999 40.512 122.487 40.032C123.991 39.536 125.743 39.288 127.743 39.288C129.615 39.288 131.263 39.6 132.687 40.224C134.111 40.832 135.215 41.792 135.999 43.104C136.799 44.416 137.199 46.112 137.199 48.192V63H133.215ZM125.487 63.624C123.551 63.624 121.943 63.288 120.663 62.616C119.383 61.928 118.423 61.032 117.783 59.928C117.159 58.824 116.847 57.648 116.847 56.4C116.847 54.88 117.231 53.632 117.999 52.656C118.783 51.664 119.863 50.928 121.239 50.448C122.615 49.968 124.199 49.728 125.991 49.728C127.223 49.728 128.423 49.84 129.591 50.064C130.759 50.288 131.911 50.584 133.047 50.952V53.712C132.119 53.376 131.087 53.112 129.951 52.92C128.831 52.712 127.783 52.608 126.807 52.608C125.351 52.608 124.135 52.896 123.159 53.472C122.183 54.048 121.695 55.024 121.695 56.4C121.695 57.408 122.079 58.28 122.847 59.016C123.615 59.736 124.831 60.096 126.495 60.096C127.711 60.096 128.783 59.824 129.711 59.28C130.639 58.72 131.359 58.024 131.871 57.192C132.383 56.36 132.639 55.528 132.639 54.696H133.743C133.743 56.296 133.415 57.776 132.759 59.136C132.119 60.48 131.183 61.568 129.951 62.4C128.719 63.216 127.231 63.624 125.487 63.624Z" fill="black"/>
</svg>
